<?xml version="1.0" encoding="UTF-8" standalone="no"?>
<svg
   xmlns:dc="http://purl.org/dc/elements/1.1/"
   xmlns:cc="http://creativecommons.org/ns#"
   xmlns:rdf="http://www.w3.org/1999/02/22-rdf-syntax-ns#"
   xmlns:svg="http://www.w3.org/2000/svg"
   xmlns="http://www.w3.org/2000/svg"
   xmlns:xlink="http://www.w3.org/1999/xlink"
   xmlns:sodipodi="http://sodipodi.sourceforge.net/DTD/sodipodi-0.dtd"
   xmlns:inkscape="http://www.inkscape.org/namespaces/inkscape"
   width="80mm"
   height="80mm"
   viewBox="0 0 80 80"
   version="1.1"
   id="svg8"
   inkscape:version="1.0.1 (3bc2e813f5, 2020-09-07)"
   sodipodi:docname="logo.svg"
   inkscape:export-filename="/home/ellie/Develop/Spew3D/logo/logo.png"
   inkscape:export-xdpi="156.24849"
   inkscape:export-ydpi="156.24849">
  <defs
     id="defs2">
    <linearGradient
       inkscape:collect="always"
       id="linearGradient1080">
      <stop
         style="stop-color:#e54761;stop-opacity:1"
         offset="0"
         id="stop1076" />
      <stop
         style="stop-color:#25031e;stop-opacity:1"
         offset="1"
         id="stop1078" />
    </linearGradient>
    <linearGradient
       inkscape:collect="always"
       id="linearGradient960">
      <stop
         style="stop-color:#1b100c;stop-opacity:1"
         offset="0"
         id="stop956" />
      <stop
         style="stop-color:#8b783e;stop-opacity:1"
         offset="1"
         id="stop958" />
    </linearGradient>
    <linearGradient
       inkscape:collect="always"
       id="linearGradient944">
      <stop
         style="stop-color:#57003e;stop-opacity:0.51156187"
         offset="0"
         id="stop940" />
      <stop
         style="stop-color:#570046;stop-opacity:0"
         offset="1"
         id="stop942" />
    </linearGradient>
    <linearGradient
       inkscape:collect="always"
       id="linearGradient934">
      <stop
         style="stop-color:#ff2525;stop-opacity:1"
         offset="0"
         id="stop930" />
      <stop
         style="stop-color:#ffc4c4;stop-opacity:1"
         offset="1"
         id="stop932" />
    </linearGradient>
    <linearGradient
       inkscape:collect="always"
       id="linearGradient922">
      <stop
         style="stop-color:#d5d5a4;stop-opacity:1"
         offset="0"
         id="stop918" />
      <stop
         style="stop-color:#66040c;stop-opacity:1"
         offset="1"
         id="stop920" />
    </linearGradient>
    <linearGradient
       inkscape:collect="always"
       id="linearGradient914">
      <stop
         style="stop-color:#fee1d4;stop-opacity:1"
         offset="0"
         id="stop910" />
      <stop
         style="stop-color:#881c3d;stop-opacity:1"
         offset="1"
         id="stop912" />
    </linearGradient>
    <linearGradient
       inkscape:collect="always"
       id="linearGradient879">
      <stop
         style="stop-color:#fedbe3;stop-opacity:0.13874248"
         offset="0"
         id="stop875" />
      <stop
         style="stop-color:#670041;stop-opacity:1"
         offset="1"
         id="stop877" />
    </linearGradient>
    <linearGradient
       inkscape:collect="always"
       xlink:href="#linearGradient879"
       id="linearGradient881"
       x1="90.777771"
       y1="52.86499"
       x2="48.595291"
       y2="101.283"
       gradientUnits="userSpaceOnUse"
       gradientTransform="matrix(0.73261141,0,0,0.71743112,-2.2332225,-0.61228333)" />
    <linearGradient
       inkscape:collect="always"
       xlink:href="#linearGradient914"
       id="linearGradient916"
       x1="52.936134"
       y1="72.815331"
       x2="31.825302"
       y2="91.198563"
       gradientUnits="userSpaceOnUse"
       gradientTransform="translate(-32.326174,-0.63981883)" />
    <linearGradient
       inkscape:collect="always"
       xlink:href="#linearGradient922"
       id="linearGradient924"
       x1="32.496216"
       y1="40.371269"
       x2="3.6436353"
       y2="85.019897"
       gradientUnits="userSpaceOnUse"
       gradientTransform="translate(-32.326174,-0.63981883)" />
    <linearGradient
       inkscape:collect="always"
       xlink:href="#linearGradient934"
       id="linearGradient936"
       x1="94.720535"
       y1="13.635267"
       x2="92.342735"
       y2="35.870609"
       gradientUnits="userSpaceOnUse"
       gradientTransform="translate(-40.138851,-0.51528362)" />
    <linearGradient
       inkscape:collect="always"
       xlink:href="#linearGradient944"
       id="linearGradient946"
       x1="71.745316"
       y1="59.659855"
       x2="84.543823"
       y2="27.811691"
       gradientUnits="userSpaceOnUse"
       gradientTransform="matrix(0.9321664,0,0,0.97452887,-24.078769,-1.9477617)" />
    <linearGradient
       inkscape:collect="always"
       xlink:href="#linearGradient960"
       id="linearGradient962"
       x1="-5.294055"
       y1="67.526375"
       x2="25.186434"
       y2="46.643856"
       gradientUnits="userSpaceOnUse"
       gradientTransform="translate(-32.326174,-0.63981883)" />
    <linearGradient
       inkscape:collect="always"
       xlink:href="#linearGradient1080"
       id="linearGradient1082"
       x1="32.630924"
       y1="74.411285"
       x2="26.738863"
       y2="82.511391"
       gradientUnits="userSpaceOnUse"
       gradientTransform="translate(0.49272249,-3.2315613)" />
  </defs>
  <sodipodi:namedview
     id="base"
     pagecolor="#ffffff"
     bordercolor="#666666"
     borderopacity="1.0"
     inkscape:pageopacity="0.0"
     inkscape:pageshadow="2"
     inkscape:zoom="1.979899"
     inkscape:cx="68.118673"
     inkscape:cy="201.61002"
     inkscape:document-units="mm"
     inkscape:current-layer="layer1"
     inkscape:document-rotation="0"
     showgrid="false"
     inkscape:window-width="1536"
     inkscape:window-height="795"
     inkscape:window-x="0"
     inkscape:window-y="0"
     inkscape:window-maximized="1"
     showguides="false" />
  <metadata
     id="metadata5">
    <rdf:RDF>
      <cc:Work
         rdf:about="">
        <dc:format>image/svg+xml</dc:format>
        <dc:type
           rdf:resource="http://purl.org/dc/dcmitype/StillImage" />
        <dc:title></dc:title>
      </cc:Work>
    </rdf:RDF>
  </metadata>
  <g
     inkscape:label="Layer 1"
     inkscape:groupmode="layer"
     id="layer1">
    <rect
       style="opacity:1;fill:url(#linearGradient881);fill-opacity:1;stroke:none;stroke-width:1.365;stroke-linecap:square;stroke-linejoin:miter;stroke-miterlimit:4;stroke-dasharray:none;stroke-dashoffset:0;stroke-opacity:1"
       id="rect873"
       width="82.771111"
       height="80.969162"
       x="-2.5533979"
       y="-0.54237175"
       inkscape:export-xdpi="156.24849"
       inkscape:export-ydpi="156.24849" />
    <path
       id="path833"
       style="fill:url(#linearGradient916);fill-opacity:1;fill-rule:evenodd;stroke:#370e0c;stroke-width:3;stroke-linecap:butt;stroke-linejoin:miter;stroke-miterlimit:4;stroke-dasharray:none;stroke-opacity:1"
       d="m 4.8335045,115.11527 c -0.800419,0.0413 -2.712108,-0.79632 -2.712108,-0.79632 -6.018408,-6.29487 -11.474818,-15.721994 -17.0387325,-22.544863 L -24.026568,79.082548 C -27.75373,68.525 -27.276084,56.257883 -23.42593,45.843578 c 1.505904,-4.49053 4.802224,-7.706961 8.52983,-9.713562 3.445635,-1.978769 11.4251595,-9.391926 15.59522346,-9.011501 5.76148404,0.0969 6.55068364,5.654594 11.76665754,8.366681 3.720946,2.771188 7.55345,5.39018 11.204681,8.256466 6.997166,9.029129 14.0922,18.278909 18.720787,29.208074 1.977403,5.591659 1.771452,13.459659 -3.011552,17.138579 -2.414809,1.682567 -6.366128,5.991258 -4.318132,7.828457 3.138814,12.050248 5.321673,16.836558 0.903639,18.398008 -13.568668,0.29147 -0.06328,-0.84714 -20.345884,-0.96877 0,0 -2.361728,-0.6654 -10.7858155,-0.23074 z"
       sodipodi:nodetypes="sccccccccccccss" />
    <path
       id="path840"
       style="fill:url(#linearGradient924);fill-opacity:1;fill-rule:evenodd;stroke:url(#linearGradient962);stroke-width:3;stroke-linecap:square;stroke-linejoin:miter;stroke-miterlimit:40;stroke-dasharray:none;stroke-opacity:1;paint-order:normal"
       d="m -21.070789,107.89647 -8.632707,-20.121236 c -0.339963,7.723975 -0.679935,15.447926 -1.019895,23.171876 L -33.554656,73.987021 C -36.80285,62.155918 -34.751978,53.6989 -32.712603,45.234568 -28.302155,33.055121 -22.777097,29.950472 -12.096318,25.676121 -6.3492285,23.376189 5.7436885,22.268149 13.231877,27.317557 22.450189,34.031155 26.052826,41.12749 32.449552,49.687356 26.958415,46.215593 17.956927,38.956961 12.465781,35.485196 14.5143,39.878837 18.536005,44.706541 16.05992,49.35113 11.364609,45.187472 7.9639093,42.291792 4.4291582,40.906373 3.0733622,46.421669 10.370637,51.40597 12.962852,55.871915 8.6750904,55.403313 -3.1998585,47.05088 -2.9269425,49.996289 -4.870487,51.449777 -9.3144634,57.805204 -0.80988554,60.225072 -3.9354579,63.385021 -3.6278751,64.860147 -11.398435,70.563927 -17.420797,84.611953 -3.0181555,86.546766 1.9036025,95.621316 l -4.466949,9.181604 -5.636653,-12.443265 z"
       sodipodi:nodetypes="cccccsccccccccccccc" />
    <path
       id="path863"
       style="opacity:1;fill:#fff9fa;fill-opacity:1;stroke:none;stroke-width:1;stroke-linecap:square;stroke-linejoin:miter;stroke-miterlimit:4;stroke-dasharray:none;stroke-dashoffset:0;stroke-opacity:1"
       inkscape:transform-center-x="1.7929347"
       inkscape:transform-center-y="5.5498557"
       d="m 15.022627,59.445449 c -0.275371,1.421653 0.264426,2.738339 -0.156383,4.604203 -0.123344,0.546903 -0.525633,1.193284 -1.07344,1.739871 -0.496091,0.494984 -1.111524,0.908124 -1.747195,1.091442 C 8.5209087,67.897392 8.9822952,66.695459 6.7058732,66.513939 5.8710486,66.447371 5.2969794,66.001068 6.1247405,63.96614 c 0.5545649,-1.363313 0.090481,-3.201965 1.4845622,-4.160328 1.8243533,-1.254155 3.6320283,-1.010999 5.1493553,-0.747866 1.099896,0.190744 1.568314,0.265956 2.266451,0.399565 2e-6,1e-6 -0.0025,-0.012 -0.0025,-0.012 z"
       sodipodi:nodetypes="ssssssssss" />
    <ellipse
       style="opacity:1;fill:#020202;fill-opacity:1;stroke:#ea009d;stroke-width:1.3;stroke-linecap:square;stroke-linejoin:miter;stroke-miterlimit:4;stroke-dasharray:none;stroke-dashoffset:0;stroke-opacity:1"
       id="path883"
       cx="10.823834"
       cy="61.543533"
       rx="2.4539614"
       ry="2.5108683" />
    <path
       id="path863-5"
       style="opacity:1;fill:#fff9fa;fill-opacity:1;stroke:none;stroke-width:1;stroke-linecap:square;stroke-linejoin:miter;stroke-miterlimit:4;stroke-dasharray:none;stroke-dashoffset:0;stroke-opacity:1"
       inkscape:transform-center-x="1.5089468"
       inkscape:transform-center-y="4.9110243"
       d="m 25.964822,50.138068 c 0.595097,1.292439 -0.03944,1.865718 -0.393598,3.516805 -0.197814,0.922214 -0.152392,1.596009 -2.189979,2.231037 -1.886842,0.588048 -2.461108,-0.330514 -4.536885,-0.07887 -0.872063,0.105723 -1.110053,0.08273 -0.413404,-1.717957 0.466726,-1.206386 0.624416,-3.729755 1.797684,-4.577802 1.535389,-1.109792 2.291831,-0.506372 3.568824,-0.273528 0.92568,0.168787 1.771447,0.04047 2.167358,0.900316 z"
       sodipodi:nodetypes="ssssssss" />
    <ellipse
       style="opacity:1;fill:#020202;fill-opacity:1;stroke:#e40078;stroke-width:1.3;stroke-linecap:square;stroke-linejoin:miter;stroke-miterlimit:4;stroke-dasharray:none;stroke-dashoffset:0;stroke-opacity:1"
       id="path883-2"
       cx="22.580854"
       cy="51.553993"
       rx="2.1697249"
       ry="2.3414304" />
    <path
       id="path900"
       style="fill:#36050d;fill-opacity:1;fill-rule:evenodd;stroke:none;stroke-width:4.9;stroke-linecap:round;stroke-linejoin:miter;stroke-miterlimit:4;stroke-dasharray:none;stroke-opacity:1"
       d="m 15.251325,55.850495 7.0511,5.04804 c 1.514378,1.10922 3.420953,1.383615 4.425367,2.088861 1.159167,0.608259 0.920025,2.979815 -0.161224,3.650342 -2.249879,1.924916 -2.583842,1.706926 -5.106833,3.29225 -0.552809,0.337392 -1.084096,0.860047 -1.619456,1.361831 -0.152609,0.143036 -1.180115,-0.649836 0.400627,-2.352043 0.990645,-1.066765 3.612426,-3.434031 3.682787,-3.730998 0.14163,-0.597771 -4.338834,-3.944153 -4.539998,-3.826317"
       sodipodi:nodetypes="cccccsssc" />
    <path
       id="path926"
       style="fill:#36050d;fill-opacity:1;fill-rule:evenodd;stroke:none;stroke-width:3.99999;stroke-linecap:butt;stroke-linejoin:miter;stroke-miterlimit:4;stroke-dasharray:none;stroke-opacity:1"
       d="M 6.2924843,59.164171 C 5.9934787,59.374362 10.477874,53.852568 10.197062,54.055238 7.5867947,55.939147 4.7087707,53.721764 3.0997971,55.449062 0.94065254,57.766988 0.46666694,61.719669 -2.0627697,65.636344 v 0"
       sodipodi:nodetypes="csscc" />
    <path
       style="fill:none;fill-rule:evenodd;stroke:#000000;stroke-width:3;stroke-linecap:butt;stroke-linejoin:miter;stroke-miterlimit:4;stroke-dasharray:none;stroke-opacity:1"
       d="M -0.29158554,85.959175 -10.00011,83.479445 v 0"
       id="path938" />
    <path
       id="path926-4"
       style="fill:#36050d;fill-opacity:1;fill-rule:evenodd;stroke:none;stroke-width:4;stroke-linecap:butt;stroke-linejoin:miter;stroke-miterlimit:4;stroke-dasharray:none;stroke-opacity:1"
       d="m 26.39156,45.522029 c 0.05019,-0.01094 -4.576597,1.443515 -6.249047,3.433585 -1.244552,-0.3135 -6.029524,3.268319 -5.888593,3.140759 1.800176,-1.629379 1.328083,-4.92623 2.985341,-5.854682 2.223936,-1.245927 5.463328,0.668936 9.152299,-0.719662 v 0"
       sodipodi:nodetypes="ccsscc" />
    <path
       id="path1005"
       style="fill:#3f0b20;fill-opacity:1;fill-rule:evenodd;stroke:none;stroke-width:0.264583px;stroke-linecap:butt;stroke-linejoin:miter;stroke-opacity:1"
       d="m 5.8060038,66.278491 1.8534197,-4.662052 c 0.5011348,-0.669196 0.7155906,-1.35746 1.9747583,-1.976239 2.3996522,-0.793772 3.8061742,-0.561351 4.6066192,-0.07802 0.259952,-0.119018 0.723046,-0.08283 0.890426,-0.149332 -1.358005,-0.372621 -2.70253,-0.803334 -4.070012,-1.135473 -1.4578256,-0.271133 -2.9978763,0.237934 -4.1035584,1.247766 -0.8874073,0.963377 -1.1965991,2.357825 -1.1263292,3.662154 -0.00843,1.0304 -0.016883,2.0608 -0.025324,3.091201 z"
       sodipodi:nodetypes="ccccccccc" />
    <path
       id="path1005-0"
       style="fill:#3f0b20;fill-opacity:1;fill-rule:evenodd;stroke:none;stroke-width:0.264583px;stroke-linecap:butt;stroke-linejoin:miter;stroke-opacity:1"
       d="m 18.116648,55.672491 1.559851,-3.758094 c 0.421759,-0.539441 0.602246,-1.094253 1.661971,-1.593052 2.019564,-0.639864 3.203303,-0.452509 3.876963,-0.0629 0.218777,-0.09594 0.60852,-0.06677 0.749389,-0.120377 -1.142906,-0.300372 -2.274468,-0.647571 -3.425351,-0.915309 -1.226916,-0.218561 -2.523034,0.191799 -3.453584,1.005829 -0.746848,0.776581 -1.007066,1.90065 -0.947926,2.952074 -0.0071,0.830607 -0.01421,1.661217 -0.02131,2.491826 z"
       sodipodi:nodetypes="ccccccccc" />
    <path
       id="path1005-5"
       style="fill:#743655;fill-opacity:1;fill-rule:evenodd;stroke:none;stroke-width:0.264583px;stroke-linecap:butt;stroke-linejoin:miter;stroke-opacity:1"
       d="m 15.131231,59.412835 -0.965603,5.079333 c -0.80051,1.381331 -2.722257,1.782961 -4.3164186,1.884284 -1.3073473,0.05833 -2.6288053,0.118633 -3.9250711,-0.04023 1.4475197,0.399818 2.887674,0.846098 4.3604407,1.132298 1.496046,0.11418 3.089093,-0.485086 4.034242,-1.729744 0.708455,-1.037365 0.858699,-2.362402 0.790116,-3.603395 0.0075,-0.907517 0.01486,-1.815036 0.02229,-2.722551 z"
       sodipodi:nodetypes="cccccccsc" />
    <path
       id="path1005-5-9"
       style="fill:#743655;fill-opacity:1;fill-rule:evenodd;stroke:none;stroke-width:0.264583px;stroke-linecap:butt;stroke-linejoin:miter;stroke-opacity:1"
       d="m 25.964825,50.138074 -0.812658,4.094466 c -0.673715,1.113495 -2.29107,1.43725 -3.632728,1.518927 -1.100273,0.04702 -2.212421,0.09563 -3.303367,-0.03243 1.218243,0.322294 2.430286,0.682041 3.669777,0.912749 1.259083,0.09204 2.599802,-0.39103 3.395246,-1.394353 0.596241,-0.836223 0.722687,-1.904339 0.664967,-2.904708 0.0063,-0.731552 0.0125,-1.463106 0.01876,-2.194657 z"
       sodipodi:nodetypes="cccccccsc" />
    <path
       style="fill:url(#linearGradient1082);fill-opacity:1;fill-rule:evenodd;stroke:none;stroke-width:0.264583px;stroke-linecap:butt;stroke-linejoin:miter;stroke-opacity:1"
       d="m 24.082314,83.129213 0.337703,-8.515027 5.901635,-5.181117 6.019035,-0.01382 c 0,0 0.429259,5.020902 0.185088,4.854984 -0.24417,-0.165917 -6.596311,7.260537 -6.596311,7.260537 z"
       id="path1074"
       sodipodi:nodetypes="ccccscc" />
    <path
       id="path837"
       style="fill:#36050d;fill-opacity:1;fill-rule:evenodd;stroke:none;stroke-width:3.765;stroke-linecap:butt;stroke-linejoin:miter;stroke-miterlimit:4;stroke-dasharray:none;stroke-opacity:1"
       d="m 24.082315,83.129216 c -0.901372,-3.347695 -2.457005,-7.673344 3.53706,-12.932052 2.253084,-1.396215 2.081655,-1.264267 3.960393,-2.005284 2.039037,-0.116104 3.764833,0.830152 4.086492,0.895519 0.445097,0.09045 0.516649,0.05376 0.674427,0.331845 -1.508712,0.377835 -2.760125,0.37176 -5.18413,1.248511 -1.907589,0.689965 -3.287886,2.370569 -4.763177,3.561715 -0.636978,1.897776 -1.159034,1.770729 -1.457226,4.531162 -0.172597,1.597765 -0.252635,2.801357 -0.853839,4.368584 z"
       sodipodi:nodetypes="cccscscsc" />
    <path
       id="path837-4"
       style="fill:#36050d;fill-opacity:1;fill-rule:evenodd;stroke:none;stroke-width:3.76499;stroke-linecap:butt;stroke-linejoin:miter;stroke-miterlimit:4;stroke-dasharray:none;stroke-opacity:1"
       d="m 36.340687,69.419244 v 0 c 0,0 0.426036,-0.126648 0.5508,0.451531 0.317245,1.470168 1.349491,2.210117 1.403631,3.645881 -0.685965,3.556702 -6.654624,9.081488 -9.772005,9.590918 -2.657027,-0.629718 -2.80861,0.371948 -4.440799,0.02164 1.508713,-0.377835 4.343937,-1.640684 6.340412,-3.271201 1.753726,-1.432264 2.421622,-2.512096 3.697426,-3.62078 0.851301,-0.739788 1.952438,-1.959375 2.19608,-4.04524 0.186447,-1.596208 -0.727072,-1.231662 -0.125868,-2.798889 z"
       sodipodi:nodetypes="ccscccssscc" />
    <path
       style="fill:url(#linearGradient946);fill-opacity:1;fill-rule:evenodd;stroke:none;stroke-width:0.264583px;stroke-linecap:butt;stroke-linejoin:miter;stroke-opacity:1"
       d="M 77.322878,41.514093 32.630926,74.411287 25.900658,77.461031 28.17781,71.567628 35.611862,-4.9506081 Z"
       id="path871"
       sodipodi:nodetypes="cccccc" />
    <text
       xml:space="preserve"
       style="font-style:normal;font-weight:normal;font-size:51.3544px;line-height:32.0965px;font-family:sans-serif;letter-spacing:0px;word-spacing:0px;fill:url(#linearGradient936);fill-opacity:1;stroke:#92002e;stroke-width:2.765;stroke-linecap:butt;stroke-linejoin:miter;stroke-miterlimit:4;stroke-dasharray:none;stroke-opacity:1"
       x="22.662214"
       y="38.562675"
       id="text869"
       transform="scale(0.80535873,1.2416827)"><tspan
         sodipodi:role="line"
         id="tspan867"
         x="22.662214"
         y="38.562675"
         style="font-style:normal;font-variant:normal;font-weight:normal;font-stretch:normal;font-size:51.3544px;font-family:Audiowide;-inkscape-font-specification:Audiowide;fill:url(#linearGradient936);fill-opacity:1;stroke:#92002e;stroke-width:2.765;stroke-miterlimit:4;stroke-dasharray:none;stroke-opacity:1">3D</tspan></text>
  </g>
</svg>
