<?xml version="1.0" encoding="UTF-8" standalone="no"?>
<svg
   xmlns:dc="http://purl.org/dc/elements/1.1/"
   xmlns:cc="http://creativecommons.org/ns#"
   xmlns:rdf="http://www.w3.org/1999/02/22-rdf-syntax-ns#"
   xmlns:svg="http://www.w3.org/2000/svg"
   xmlns="http://www.w3.org/2000/svg"
   xmlns:xlink="http://www.w3.org/1999/xlink"
   xmlns:sodipodi="http://sodipodi.sourceforge.net/DTD/sodipodi-0.dtd"
   xmlns:inkscape="http://www.inkscape.org/namespaces/inkscape"
   width="80mm"
   height="80mm"
   viewBox="0 0 80 80"
   version="1.1"
   id="svg8"
   inkscape:version="1.0.1 (3bc2e813f5, 2020-09-07)"
   sodipodi:docname="logo.svg"
   inkscape:export-filename="/home/ellie/Develop/Spew3D/logo/logo.png"
   inkscape:export-xdpi="156.24849"
   inkscape:export-ydpi="156.24849">
  <defs
     id="defs2">
    <linearGradient
       inkscape:collect="always"
       id="linearGradient1768">
      <stop
         style="stop-color:#5c5740;stop-opacity:1;"
         offset="0"
         id="stop1764" />
      <stop
         style="stop-color:#5c5740;stop-opacity:0;"
         offset="1"
         id="stop1766" />
    </linearGradient>
    <linearGradient
       inkscape:collect="always"
       id="linearGradient1760">
      <stop
         style="stop-color:#6e684c;stop-opacity:1;"
         offset="0"
         id="stop1756" />
      <stop
         style="stop-color:#6e684c;stop-opacity:0;"
         offset="1"
         id="stop1758" />
    </linearGradient>
    <linearGradient
       inkscape:collect="always"
       id="linearGradient1752">
      <stop
         style="stop-color:#867f5d;stop-opacity:1;"
         offset="0"
         id="stop1748" />
      <stop
         style="stop-color:#867f5d;stop-opacity:0;"
         offset="1"
         id="stop1750" />
    </linearGradient>
    <linearGradient
       inkscape:collect="always"
       id="linearGradient1744">
      <stop
         style="stop-color:#978f69;stop-opacity:1;"
         offset="0"
         id="stop1740" />
      <stop
         style="stop-color:#978f69;stop-opacity:0;"
         offset="1"
         id="stop1742" />
    </linearGradient>
    <linearGradient
       inkscape:collect="always"
       id="linearGradient1080">
      <stop
         style="stop-color:#e54761;stop-opacity:1"
         offset="0"
         id="stop1076" />
      <stop
         style="stop-color:#25031e;stop-opacity:1"
         offset="1"
         id="stop1078" />
    </linearGradient>
    <linearGradient
       inkscape:collect="always"
       id="linearGradient944">
      <stop
         style="stop-color:#57003e;stop-opacity:0.91000003"
         offset="0"
         id="stop940" />
      <stop
         style="stop-color:#570046;stop-opacity:0"
         offset="1"
         id="stop942" />
    </linearGradient>
    <linearGradient
       inkscape:collect="always"
       id="linearGradient934">
      <stop
         style="stop-color:#ff2525;stop-opacity:1"
         offset="0"
         id="stop930" />
      <stop
         style="stop-color:#ffc4c4;stop-opacity:1"
         offset="1"
         id="stop932" />
    </linearGradient>
    <linearGradient
       inkscape:collect="always"
       id="linearGradient922">
      <stop
         style="stop-color:#d5d5a4;stop-opacity:1"
         offset="0"
         id="stop918" />
      <stop
         style="stop-color:#66040c;stop-opacity:1"
         offset="1"
         id="stop920" />
    </linearGradient>
    <linearGradient
       inkscape:collect="always"
       id="linearGradient914">
      <stop
         style="stop-color:#fee1d4;stop-opacity:1"
         offset="0"
         id="stop910" />
      <stop
         style="stop-color:#881c3d;stop-opacity:1"
         offset="1"
         id="stop912" />
    </linearGradient>
    <linearGradient
       inkscape:collect="always"
       id="linearGradient879">
      <stop
         style="stop-color:#fedbe3;stop-opacity:0.13874248"
         offset="0"
         id="stop875" />
      <stop
         style="stop-color:#670041;stop-opacity:1"
         offset="1"
         id="stop877" />
    </linearGradient>
    <linearGradient
       inkscape:collect="always"
       xlink:href="#linearGradient879"
       id="linearGradient881"
       x1="90.777771"
       y1="52.86499"
       x2="48.595291"
       y2="101.283"
       gradientUnits="userSpaceOnUse"
       gradientTransform="matrix(0.73261141,0,0,0.71743112,-2.2332225,-0.61228333)" />
    <linearGradient
       inkscape:collect="always"
       xlink:href="#linearGradient914"
       id="linearGradient916"
       x1="52.936134"
       y1="72.815331"
       x2="31.825302"
       y2="91.198563"
       gradientUnits="userSpaceOnUse"
       gradientTransform="translate(-32.326174,-0.63981883)" />
    <linearGradient
       inkscape:collect="always"
       xlink:href="#linearGradient922"
       id="linearGradient924"
       x1="32.496216"
       y1="40.371269"
       x2="3.6436353"
       y2="85.019897"
       gradientUnits="userSpaceOnUse"
       gradientTransform="translate(-32.326174,-0.63981883)" />
    <linearGradient
       inkscape:collect="always"
       xlink:href="#linearGradient934"
       id="linearGradient936"
       x1="94.720535"
       y1="13.635267"
       x2="92.342735"
       y2="35.870609"
       gradientUnits="userSpaceOnUse"
       gradientTransform="translate(-40.138851,-0.51528362)" />
    <linearGradient
       inkscape:collect="always"
       xlink:href="#linearGradient944"
       id="linearGradient946"
       x1="63.089996"
       y1="73.144424"
       x2="74.033791"
       y2="47.495388"
       gradientUnits="userSpaceOnUse"
       gradientTransform="matrix(0.9321664,0,0,0.97452887,-24.078769,-1.9477617)" />
    <linearGradient
       inkscape:collect="always"
       xlink:href="#linearGradient1080"
       id="linearGradient1082"
       x1="31.129725"
       y1="81.957703"
       x2="27.422836"
       y2="79.783432"
       gradientUnits="userSpaceOnUse"
       gradientTransform="translate(0.49272249,-3.2315613)" />
    <filter
       style="color-interpolation-filters:sRGB;"
       inkscape:label="Blur"
       id="filter1126">
      <feGaussianBlur
         stdDeviation="2.42791 1.98029"
         result="blur"
         id="feGaussianBlur1124" />
    </filter>
    <filter
       inkscape:collect="always"
       style="color-interpolation-filters:sRGB"
       id="filter1160"
       x="-0.068558784"
       width="1.1371176"
       y="-0.062936933"
       height="1.1258739">
      <feGaussianBlur
         inkscape:collect="always"
         stdDeviation="1.3695123"
         id="feGaussianBlur1162" />
    </filter>
    <filter
       style="color-interpolation-filters:sRGB;"
       inkscape:label="Blur"
       id="filter1166">
      <feGaussianBlur
         stdDeviation="2.42791 1.98029"
         result="blur"
         id="feGaussianBlur1164" />
    </filter>
    <filter
       inkscape:collect="always"
       style="color-interpolation-filters:sRGB"
       id="filter1176"
       x="-0.094548046"
       width="1.1890961"
       y="-0.1213909"
       height="1.2427818">
      <feGaussianBlur
         inkscape:collect="always"
         stdDeviation="0.7350016"
         id="feGaussianBlur1178" />
    </filter>
    <filter
       style="color-interpolation-filters:sRGB;"
       inkscape:label="Blur"
       id="filter1182">
      <feGaussianBlur
         stdDeviation="2.42791 1.98029"
         result="blur"
         id="feGaussianBlur1180" />
    </filter>
    <filter
       style="color-interpolation-filters:sRGB;"
       inkscape:label="Blur"
       id="filter1226">
      <feGaussianBlur
         stdDeviation="2.42791 1.98029"
         result="blur"
         id="feGaussianBlur1224" />
    </filter>
    <filter
       inkscape:collect="always"
       style="color-interpolation-filters:sRGB"
       id="filter1228"
       x="-0.36375532"
       width="1.7275106"
       y="-0.44631854"
       height="1.8926371">
      <feGaussianBlur
         inkscape:collect="always"
         stdDeviation="0.50823575"
         id="feGaussianBlur1230" />
    </filter>
    <filter
       inkscape:collect="always"
       style="color-interpolation-filters:sRGB"
       id="filter1236"
       x="-0.19018823"
       width="1.3803765"
       y="-0.23764327"
       height="1.4752865">
      <feGaussianBlur
         inkscape:collect="always"
         stdDeviation="0.39384748"
         id="feGaussianBlur1238" />
    </filter>
    <filter
       style="color-interpolation-filters:sRGB;"
       inkscape:label="Blur"
       id="filter1250">
      <feGaussianBlur
         stdDeviation="1.07512 1.58846"
         result="blur"
         id="feGaussianBlur1248" />
    </filter>
    <filter
       inkscape:collect="always"
       style="color-interpolation-filters:sRGB"
       id="filter1272"
       x="-0.067611556"
       width="1.1352231"
       y="-0.12897298"
       height="1.257946">
      <feGaussianBlur
         inkscape:collect="always"
         stdDeviation="0.32232448"
         id="feGaussianBlur1274" />
    </filter>
    <filter
       style="color-interpolation-filters:sRGB;"
       inkscape:label="Blur"
       id="filter1318">
      <feGaussianBlur
         stdDeviation="0.1 0.3"
         result="blur"
         id="feGaussianBlur1316" />
    </filter>
    <filter
       style="color-interpolation-filters:sRGB;"
       inkscape:label="Blur"
       id="filter1322">
      <feGaussianBlur
         stdDeviation="0.1 0.1"
         result="blur"
         id="feGaussianBlur1320" />
    </filter>
    <filter
       style="color-interpolation-filters:sRGB;"
       inkscape:label="Blur"
       id="filter1326">
      <feGaussianBlur
         stdDeviation="0.1 0.1"
         result="blur"
         id="feGaussianBlur1324" />
    </filter>
    <filter
       style="color-interpolation-filters:sRGB;"
       inkscape:label="Blur"
       id="filter1330">
      <feGaussianBlur
         stdDeviation="0.1 0.1"
         result="blur"
         id="feGaussianBlur1328" />
    </filter>
    <filter
       inkscape:collect="always"
       style="color-interpolation-filters:sRGB"
       id="filter1348"
       x="-0.012427003"
       width="1.024854"
       y="-0.014803509"
       height="1.029607">
      <feGaussianBlur
         inkscape:collect="always"
         stdDeviation="0.040122406"
         id="feGaussianBlur1350" />
    </filter>
    <filter
       inkscape:collect="always"
       style="color-interpolation-filters:sRGB"
       id="filter1356"
       x="-0.019458717"
       width="1.0389174"
       y="-0.022476097"
       height="1.0449522">
      <feGaussianBlur
         inkscape:collect="always"
         stdDeviation="0.075607038"
         id="feGaussianBlur1358" />
    </filter>
    <filter
       inkscape:collect="always"
       style="color-interpolation-filters:sRGB"
       id="filter1360"
       x="-0.013624393"
       width="1.0272488"
       y="-0.016430183"
       height="1.0328604">
      <feGaussianBlur
         inkscape:collect="always"
         stdDeviation="0.044552753"
         id="feGaussianBlur1362" />
    </filter>
    <filter
       inkscape:collect="always"
       style="color-interpolation-filters:sRGB"
       id="filter1436"
       x="-0.018243009"
       width="1.036486"
       y="-0.020814987"
       height="1.04163">
      <feGaussianBlur
         inkscape:collect="always"
         stdDeviation="0.06998545"
         id="feGaussianBlur1438" />
    </filter>
    <filter
       style="color-interpolation-filters:sRGB;"
       inkscape:label="Blur"
       id="filter1442">
      <feGaussianBlur
         stdDeviation="1.28095 1.30079"
         result="blur"
         id="feGaussianBlur1440" />
    </filter>
    <filter
       inkscape:collect="always"
       style="color-interpolation-filters:sRGB"
       id="filter1480"
       x="-0.059784052"
       width="1.1195681"
       y="-0.053675056"
       height="1.1073501">
      <feGaussianBlur
         inkscape:collect="always"
         stdDeviation="0.36347118"
         id="feGaussianBlur1482" />
    </filter>
    <filter
       style="color-interpolation-filters:sRGB;"
       inkscape:label="Blur"
       id="filter1670">
      <feGaussianBlur
         stdDeviation="0.633698 0.322469"
         result="blur"
         id="feGaussianBlur1668" />
    </filter>
    <filter
       style="color-interpolation-filters:sRGB;"
       inkscape:label="Blur"
       id="filter1674">
      <feGaussianBlur
         stdDeviation="0.633698 0.322469"
         result="blur"
         id="feGaussianBlur1672" />
    </filter>
    <filter
       style="color-interpolation-filters:sRGB;"
       inkscape:label="Blur"
       id="filter1678">
      <feGaussianBlur
         stdDeviation="0.633698 0.322469"
         result="blur"
         id="feGaussianBlur1676" />
    </filter>
    <filter
       style="color-interpolation-filters:sRGB;"
       inkscape:label="Blur"
       id="filter1682">
      <feGaussianBlur
         stdDeviation="0.633698 0.322469"
         result="blur"
         id="feGaussianBlur1680" />
    </filter>
    <filter
       inkscape:collect="always"
       style="color-interpolation-filters:sRGB"
       id="filter1696"
       x="-0.028722637"
       width="1.0574453"
       y="-0.021647717"
       height="1.0432954">
      <feGaussianBlur
         inkscape:collect="always"
         stdDeviation="0.17474331"
         id="feGaussianBlur1698" />
    </filter>
    <filter
       inkscape:collect="always"
       style="color-interpolation-filters:sRGB"
       id="filter1704"
       x="-0.037094509"
       width="1.074189"
       y="-0.039948135"
       height="1.0798963">
      <feGaussianBlur
         inkscape:collect="always"
         stdDeviation="0.30755661"
         id="feGaussianBlur1706" />
    </filter>
    <filter
       inkscape:collect="always"
       style="color-interpolation-filters:sRGB"
       id="filter1724"
       x="-0.020352665"
       width="1.0407053"
       y="-0.043886935"
       height="1.0877739">
      <feGaussianBlur
         inkscape:collect="always"
         stdDeviation="0.2727991"
         id="feGaussianBlur1726" />
    </filter>
    <filter
       inkscape:collect="always"
       style="color-interpolation-filters:sRGB"
       id="filter1728"
       x="-0.04417907"
       width="1.0883581"
       y="-0.067444403"
       height="1.1348888">
      <feGaussianBlur
         inkscape:collect="always"
         stdDeviation="0.35565375"
         id="feGaussianBlur1730" />
    </filter>
    <linearGradient
       inkscape:collect="always"
       xlink:href="#linearGradient1744"
       id="linearGradient1746"
       x1="17.541197"
       y1="36.937206"
       x2="6.7640758"
       y2="28.326067"
       gradientUnits="userSpaceOnUse" />
    <linearGradient
       inkscape:collect="always"
       xlink:href="#linearGradient1752"
       id="linearGradient1754"
       x1="8.434701"
       y1="42.751545"
       x2="1.2819446"
       y2="33.060368"
       gradientUnits="userSpaceOnUse" />
    <linearGradient
       inkscape:collect="always"
       xlink:href="#linearGradient1760"
       id="linearGradient1762"
       x1="-0.15539841"
       y1="48.328907"
       x2="-13.667309"
       y2="41.333763"
       gradientUnits="userSpaceOnUse" />
    <linearGradient
       inkscape:collect="always"
       xlink:href="#linearGradient1768"
       id="linearGradient1770"
       x1="-9.128273"
       y1="56.573143"
       x2="-21.915606"
       y2="47.886333"
       gradientUnits="userSpaceOnUse" />
    <filter
       style="color-interpolation-filters:sRGB;"
       inkscape:label="Blur"
       id="filter1147">
      <feGaussianBlur
         stdDeviation="0.633698 0.322469"
         result="blur"
         id="feGaussianBlur1145" />
    </filter>
    <filter
       style="color-interpolation-filters:sRGB"
       inkscape:label="Blur"
       id="filter1147-3">
      <feGaussianBlur
         stdDeviation="0.633698 0.322469"
         result="blur"
         id="feGaussianBlur1145-6" />
    </filter>
    <filter
       style="color-interpolation-filters:sRGB"
       inkscape:label="Blur"
       id="filter1147-3-5">
      <feGaussianBlur
         stdDeviation="0.633698 0.322469"
         result="blur"
         id="feGaussianBlur1145-6-3" />
    </filter>
    <filter
       style="color-interpolation-filters:sRGB"
       inkscape:label="Blur"
       id="filter1147-3-5-6">
      <feGaussianBlur
         stdDeviation="0.633698 0.322469"
         result="blur"
         id="feGaussianBlur1145-6-3-2" />
    </filter>
    <filter
       inkscape:collect="always"
       style="color-interpolation-filters:sRGB"
       id="filter1176-1"
       x="-0.094548047"
       width="1.1890961"
       y="-0.1213909"
       height="1.2427818">
      <feGaussianBlur
         inkscape:collect="always"
         stdDeviation="0.7350016"
         id="feGaussianBlur1178-2" />
    </filter>
  </defs>
  <sodipodi:namedview
     id="base"
     pagecolor="#ffffff"
     bordercolor="#666666"
     borderopacity="1.0"
     inkscape:pageopacity="0.0"
     inkscape:pageshadow="2"
     inkscape:zoom="1.4"
     inkscape:cx="101.77656"
     inkscape:cy="174.78303"
     inkscape:document-units="mm"
     inkscape:current-layer="layer1"
     inkscape:document-rotation="0"
     showgrid="false"
     inkscape:window-width="1536"
     inkscape:window-height="795"
     inkscape:window-x="0"
     inkscape:window-y="0"
     inkscape:window-maximized="1"
     showguides="false"
     inkscape:snap-nodes="false" />
  <metadata
     id="metadata5">
    <rdf:RDF>
      <cc:Work
         rdf:about="">
        <dc:format>image/svg+xml</dc:format>
        <dc:type
           rdf:resource="http://purl.org/dc/dcmitype/StillImage" />
        <dc:title />
      </cc:Work>
    </rdf:RDF>
  </metadata>
  <g
     inkscape:label="Layer 1"
     inkscape:groupmode="layer"
     id="layer1">
    <rect
       style="opacity:1;fill:url(#linearGradient881);fill-opacity:1;stroke:none;stroke-width:1.365;stroke-linecap:square;stroke-linejoin:miter;stroke-miterlimit:4;stroke-dasharray:none;stroke-dashoffset:0;stroke-opacity:1"
       id="rect873"
       width="82.771111"
       height="80.969162"
       x="-2.5533979"
       y="-0.54237175"
       inkscape:export-xdpi="156.24849"
       inkscape:export-ydpi="156.24849" />
    <path
       id="path833"
       style="fill:url(#linearGradient916);fill-opacity:1;fill-rule:evenodd;stroke:#370e0c;stroke-width:3;stroke-linecap:butt;stroke-linejoin:miter;stroke-miterlimit:4;stroke-dasharray:none;stroke-opacity:1"
       d="m 4.8335045,115.11527 c -0.800419,0.0413 -2.712108,-0.79632 -2.712108,-0.79632 -6.018408,-6.29487 -11.474818,-15.721994 -17.0387325,-22.544863 L -24.026568,79.082548 C -27.75373,68.525 -27.276084,56.257883 -23.42593,45.843578 c 1.505904,-4.49053 4.802224,-7.706961 8.52983,-9.713562 3.445635,-1.978769 11.4251595,-9.391926 15.59522346,-9.011501 5.76148404,0.0969 6.55068364,5.654594 11.76665754,8.366681 3.720946,2.771188 7.55345,5.39018 11.204681,8.256466 1.578654,2.037091 3.162289,4.085414 4.721457,6.161721 4.68003,6.232282 5.443261,8.69825 8.886006,15.887822 0.494047,1.031729 3.493296,8.057537 3.943109,9.119648 1.451411,7.064437 0.859158,8.284745 -2.829782,13.199838 -3.095461,3.92717 -6.366128,5.991258 -4.318132,7.828457 3.138814,12.050252 6.310118,18.814182 1.892084,20.375632 -13.568668,0.29147 -0.06328,-0.84714 -20.345884,-0.96877 0,0 -2.361728,-0.6654 -10.7858155,-0.23074 z"
       sodipodi:nodetypes="sccccccccssccccss" />
    <path
       id="path840"
       style="fill:url(#linearGradient924);fill-opacity:1;fill-rule:evenodd;stroke:none;stroke-width:3;stroke-linecap:square;stroke-linejoin:miter;stroke-miterlimit:40;stroke-dasharray:none;stroke-opacity:1;paint-order:normal"
       d="m -21.070789,107.89647 -8.632707,-20.121236 c -0.339963,7.723975 -0.679935,15.447926 -1.019895,23.171876 L -33.554656,73.987021 C -36.80285,62.155918 -34.751978,53.6989 -32.712603,45.234568 -28.302155,33.055121 -22.777097,29.950472 -12.096318,25.676121 -6.3492285,23.376189 5.7436885,22.268149 13.231877,27.317557 22.450189,34.031155 26.052826,41.12749 32.449552,49.687356 26.958415,46.215593 17.956927,38.956961 12.465781,35.485196 14.5143,39.878837 18.536005,44.706541 16.05992,49.35113 11.364609,45.187472 7.9639093,42.291792 4.4291582,40.906373 3.0733622,46.421669 10.370637,51.40597 12.962852,55.871915 8.6750904,55.403313 -6.7597111,44.289965 -6.4867951,47.235374 c -0.768948,0.575061 2.71634,2.905602 2.1213632,4.467975 -0.9088492,2.386584 0.4646295,5.530287 3.43287382,9.657357 -1.04472442,1.056215 -9.81349592,-4.627301 -10.52096592,-3.726724 -1.409116,1.79374 5.2283346,9.132657 0.05509,12.929945 -6.022362,14.048026 8.3802795,15.982839 13.3020375,25.057389 l -4.466949,9.181604 -5.636653,-12.443265 z"
       sodipodi:nodetypes="cccccscccccccscsccccc" />
    <path
       id="path863"
       style="opacity:1;fill:#fff9fa;fill-opacity:1;stroke:none;stroke-width:1;stroke-linecap:square;stroke-linejoin:miter;stroke-miterlimit:4;stroke-dasharray:none;stroke-dashoffset:0;stroke-opacity:1"
       inkscape:transform-center-x="1.7929347"
       inkscape:transform-center-y="5.5498557"
       d="m 15.022627,59.445449 c -0.275371,1.421653 0.264426,2.738339 -0.156383,4.604203 -0.123344,0.546903 -0.525633,1.193284 -1.07344,1.739871 -0.496091,0.494984 -1.111524,0.908124 -1.747195,1.091442 C 8.5209087,67.897392 8.9822952,66.695459 6.7058732,66.513939 5.8710486,66.447371 5.2969794,66.001068 6.1247405,63.96614 c 0.5545649,-1.363313 0.090481,-3.201965 1.4845622,-4.160328 1.8243533,-1.254155 3.6320283,-1.010999 5.1493553,-0.747866 1.099896,0.190744 1.568314,0.265956 2.266451,0.399565 2e-6,1e-6 -0.0025,-0.012 -0.0025,-0.012 z"
       sodipodi:nodetypes="ssssssssss" />
    <ellipse
       style="opacity:1;fill:#020202;fill-opacity:1;stroke:#ea009d;stroke-width:1.3;stroke-linecap:square;stroke-linejoin:miter;stroke-miterlimit:4;stroke-dasharray:none;stroke-dashoffset:0;stroke-opacity:1"
       id="path883"
       cx="10.823834"
       cy="61.543533"
       rx="2.4539614"
       ry="2.5108683" />
    <path
       id="path863-5"
       style="opacity:1;fill:#fff9fa;fill-opacity:1;stroke:none;stroke-width:1;stroke-linecap:square;stroke-linejoin:miter;stroke-miterlimit:4;stroke-dasharray:none;stroke-dashoffset:0;stroke-opacity:1"
       inkscape:transform-center-x="1.5089468"
       inkscape:transform-center-y="4.9110243"
       d="m 25.964822,50.138068 c 0.595097,1.292439 -0.03944,1.865718 -0.393598,3.516805 -0.197814,0.922214 -0.152392,1.596009 -2.189979,2.231037 -1.886842,0.588048 -2.461108,-0.330514 -4.536885,-0.07887 -0.872063,0.105723 -1.110053,0.08273 -0.413404,-1.717957 0.466726,-1.206386 0.624416,-3.729755 1.797684,-4.577802 1.535389,-1.109792 2.291831,-0.506372 3.568824,-0.273528 0.92568,0.168787 1.771447,0.04047 2.167358,0.900316 z"
       sodipodi:nodetypes="ssssssss" />
    <ellipse
       style="opacity:1;fill:#020202;fill-opacity:1;stroke:#e40078;stroke-width:1.3;stroke-linecap:square;stroke-linejoin:miter;stroke-miterlimit:4;stroke-dasharray:none;stroke-dashoffset:0;stroke-opacity:1"
       id="path883-2"
       cx="22.580854"
       cy="51.553993"
       rx="2.1697249"
       ry="2.3414304" />
    <path
       id="path926"
       style="fill:#36050d;fill-opacity:1;fill-rule:evenodd;stroke:none;stroke-width:3.99999;stroke-linecap:butt;stroke-linejoin:miter;stroke-miterlimit:4;stroke-dasharray:none;stroke-opacity:1"
       d="M 6.2924843,59.164171 C 5.9934787,59.374362 10.477874,53.852568 10.197062,54.055238 7.5867947,55.939147 4.7087707,53.721764 3.0997971,55.449062 0.94065254,57.766988 0.46666694,61.719669 -2.0627697,65.636344 v 0"
       sodipodi:nodetypes="csscc" />
    <path
       style="fill:none;fill-rule:evenodd;stroke:#000000;stroke-width:3;stroke-linecap:butt;stroke-linejoin:miter;stroke-miterlimit:4;stroke-dasharray:none;stroke-opacity:1"
       d="M -0.29158554,85.959175 -10.00011,83.479445 v 0"
       id="path938" />
    <path
       id="path926-4"
       style="fill:#36050d;fill-opacity:1;fill-rule:evenodd;stroke:none;stroke-width:4;stroke-linecap:butt;stroke-linejoin:miter;stroke-miterlimit:4;stroke-dasharray:none;stroke-opacity:1"
       d="m 26.39156,45.522029 c 0.05019,-0.01094 -4.576597,1.443515 -6.249047,3.433585 -1.244552,-0.3135 -6.029524,3.268319 -5.888593,3.140759 1.800176,-1.629379 1.328083,-4.92623 2.985341,-5.854682 2.223936,-1.245927 5.463328,0.668936 9.152299,-0.719662 v 0"
       sodipodi:nodetypes="ccsscc" />
    <path
       id="path1005"
       style="fill:#3f0b20;fill-opacity:1;fill-rule:evenodd;stroke:none;stroke-width:0.264583px;stroke-linecap:butt;stroke-linejoin:miter;stroke-opacity:1;filter:url(#filter1356)"
       d="m 5.8060038,66.278491 1.8534197,-4.662052 c 0.5011348,-0.669196 0.7155906,-1.35746 1.9747583,-1.976239 2.3996522,-0.793772 3.8061742,-0.561351 4.6066192,-0.07802 0.259952,-0.119018 0.723046,-0.08283 0.890426,-0.149332 -1.358005,-0.372621 -2.70253,-0.803334 -4.070012,-1.135473 -1.4578256,-0.271133 -2.9978763,0.237934 -4.1035584,1.247766 -0.8874073,0.963377 -1.1965991,2.357825 -1.1263292,3.662154 -0.00843,1.0304 -0.016883,2.0608 -0.025324,3.091201 z"
       sodipodi:nodetypes="ccccccccc" />
    <path
       id="path1005-0"
       style="fill:#3f0b20;fill-opacity:1;fill-rule:evenodd;stroke:none;stroke-width:0.264583px;stroke-linecap:butt;stroke-linejoin:miter;stroke-opacity:1;filter:url(#filter1360)"
       d="m 18.116648,55.672491 1.559851,-3.758094 c 0.421759,-0.539441 0.602246,-1.094253 1.661971,-1.593052 2.019564,-0.639864 3.203303,-0.452509 3.876963,-0.0629 0.218777,-0.09594 0.60852,-0.06677 0.749389,-0.120377 -1.142906,-0.300372 -2.274468,-0.647571 -3.425351,-0.915309 -1.226916,-0.218561 -2.523034,0.191799 -3.453584,1.005829 -0.746848,0.776581 -1.007066,1.90065 -0.947926,2.952074 -0.0071,0.830607 -0.01421,1.661217 -0.02131,2.491826 z"
       sodipodi:nodetypes="ccccccccc" />
    <path
       id="path1005-5"
       style="fill:#743655;fill-opacity:1;fill-rule:evenodd;stroke:none;stroke-width:0.264583px;stroke-linecap:butt;stroke-linejoin:miter;stroke-opacity:1;filter:url(#filter1436)"
       d="m 15.131231,59.412835 -0.965603,5.079333 c -0.80051,1.381331 -2.722257,1.782961 -4.3164186,1.884284 -1.3073473,0.05833 -2.6288053,0.118633 -3.9250711,-0.04023 1.4475197,0.399818 2.887674,0.846098 4.3604407,1.132298 1.496046,0.11418 3.089093,-0.485086 4.034242,-1.729744 0.708455,-1.037365 0.858699,-2.362402 0.790116,-3.603395 0.0075,-0.907517 0.01486,-1.815036 0.02229,-2.722551 z"
       sodipodi:nodetypes="cccccccsc" />
    <path
       id="path1005-5-9"
       style="fill:#743655;fill-opacity:1;fill-rule:evenodd;stroke:none;stroke-width:0.264583px;stroke-linecap:butt;stroke-linejoin:miter;stroke-opacity:1;filter:url(#filter1348)"
       d="m 25.964825,50.138074 -0.812658,4.094466 c -0.673715,1.113495 -2.29107,1.43725 -3.632728,1.518927 -1.100273,0.04702 -2.212421,0.09563 -3.303367,-0.03243 1.218243,0.322294 2.430286,0.682041 3.669777,0.912749 1.259083,0.09204 2.599802,-0.39103 3.395246,-1.394353 0.596241,-0.836223 0.722687,-1.904339 0.664967,-2.904708 0.0063,-0.731552 0.0125,-1.463106 0.01876,-2.194657 z"
       sodipodi:nodetypes="cccccccsc" />
    <path
       style="fill:url(#linearGradient1082);fill-opacity:1;fill-rule:evenodd;stroke:none;stroke-width:0.264583px;stroke-linecap:butt;stroke-linejoin:miter;stroke-opacity:1"
       d="m 24.082314,83.129213 0.624692,-7.116995 5.614646,-6.579149 6.019035,-0.01382 c 0,0 0.429259,5.020902 0.185088,4.854984 -0.24417,-0.165917 -6.596311,7.260537 -6.596311,7.260537 z"
       id="path1074"
       sodipodi:nodetypes="ccccscc" />
    <path
       id="path837"
       style="fill:#72424a;fill-opacity:1;fill-rule:evenodd;stroke:none;stroke-width:3.765;stroke-linecap:butt;stroke-linejoin:miter;stroke-miterlimit:4;stroke-dasharray:none;stroke-opacity:1"
       d="m 24.082315,83.129216 c -0.717319,-2.664121 -0.698448,-6.241592 1.890269,-10.121782 0.664226,-0.995599 1.573387,-2.030484 2.79733,-3.104272 2.253084,-1.396215 0.931116,-0.970265 2.809854,-1.711282 2.039037,-0.116104 3.764833,0.830152 4.086492,0.895519 0.445097,0.09045 0.516649,0.05376 0.674427,0.331845 -1.508712,0.377835 -0.934653,-0.530014 -3.358658,0.346737 -1.907589,0.689965 -3.365535,3.153064 -4.840826,4.34421 -0.636978,1.897776 -2.240545,3.35084 -3.205049,4.650441 -0.957744,1.290492 -0.252635,2.801357 -0.853839,4.368584 z"
       sodipodi:nodetypes="csccscscsc" />
    <path
       id="path837-4"
       style="fill:#66333b;fill-opacity:1;fill-rule:evenodd;stroke:none;stroke-width:3.76499;stroke-linecap:butt;stroke-linejoin:miter;stroke-miterlimit:4;stroke-dasharray:none;stroke-opacity:1"
       d="m 36.340687,69.419244 v 0 c 0,0 0.426036,-0.126648 0.5508,0.451531 0.317245,1.470168 1.349491,2.210117 1.403631,3.645881 -0.685965,3.556702 -6.654624,9.081488 -9.772005,9.590918 -2.657027,-0.629718 -2.80861,0.371948 -4.440799,0.02164 1.508713,-0.377835 4.343937,-1.640684 6.340412,-3.271201 1.753726,-1.432264 2.421622,-2.512096 3.697426,-3.62078 0.851301,-0.739788 1.952438,-1.959375 2.19608,-4.04524 0.186447,-1.596208 -0.727072,-1.231662 -0.125868,-2.798889 z"
       sodipodi:nodetypes="ccscccssscc" />
    <path
       style="fill:#989977;fill-opacity:1;fill-rule:evenodd;stroke:#989977;stroke-width:0.265001;stroke-linecap:round;stroke-linejoin:round;stroke-miterlimit:4;stroke-dasharray:none;stroke-opacity:1"
       d="m 26.209266,82.30564 -0.09959,-0.336022 2.316445,-1.590061 0.277924,0.688602 z"
       id="path993" />
    <path
       style="fill:#989977;fill-opacity:1;fill-rule:evenodd;stroke:#989977;stroke-width:0.265001;stroke-linecap:round;stroke-linejoin:round;stroke-miterlimit:4;stroke-dasharray:none;stroke-opacity:1"
       d="m 28.933848,80.833922 -0.156098,-0.713729 1.876716,-1.273983 0.108825,0.561198 z"
       id="path993-3"
       sodipodi:nodetypes="ccccc" />
    <path
       style="fill:#989977;fill-opacity:1;fill-rule:evenodd;stroke:#989977;stroke-width:0.265001;stroke-linecap:round;stroke-linejoin:round;stroke-miterlimit:4;stroke-dasharray:none;stroke-opacity:1"
       d="m 30.943107,79.309736 -0.01635,-0.644282 1.65062,-1.479405 0.0037,0.486415 -0.760356,0.827385 z"
       id="path993-6"
       sodipodi:nodetypes="cccccc" />
    <path
       id="path993-7"
       style="fill:#989977;fill-opacity:1;fill-rule:evenodd;stroke:#989977;stroke-width:0.265001;stroke-linecap:round;stroke-linejoin:round;stroke-miterlimit:4;stroke-dasharray:none;stroke-opacity:1"
       d="m 32.796266,77.42872 c -0.03505,-0.146889 0.01171,-0.221252 0.04533,-0.400147 l 1.472514,-1.775904 0.182983,0.467102 c -0.615047,0.787229 -0.652021,0.83173 -1.381474,1.450728 z"
       sodipodi:nodetypes="cccccc" />
    <path
       style="fill:#989977;fill-opacity:1;fill-rule:evenodd;stroke:#989977;stroke-width:0.265001;stroke-linecap:round;stroke-linejoin:round;stroke-miterlimit:4;stroke-dasharray:none;stroke-opacity:1"
       d="m 35.9188,73.551275 -0.306486,-0.229222 0.344506,-0.933029 0.201762,-1.161953 0.156655,0.298431 -0.15789,1.007279 z"
       id="path993-5"
       sodipodi:nodetypes="ccccccc" />
    <path
       id="path993-7-3"
       style="fill:#989977;fill-opacity:1;fill-rule:evenodd;stroke:#989977;stroke-width:0.265001;stroke-linecap:round;stroke-linejoin:round;stroke-miterlimit:4;stroke-dasharray:none;stroke-opacity:1"
       d="m 34.707009,75.556909 c 0.01976,-0.323557 -0.103542,-0.270852 -0.07705,-0.449747 l 1.147808,-1.699981 0.144072,0.467102 c -0.484259,0.787229 -0.205712,0.216481 -0.572743,0.817853 z"
       sodipodi:nodetypes="cccccc" />
    <path
       style="fill:#66333b;fill-opacity:0.459463;fill-rule:evenodd;stroke:none;stroke-width:0.230573px;stroke-linecap:butt;stroke-linejoin:miter;stroke-opacity:1;filter:url(#filter1176)"
       d="m 3.4656374,59.721919 c -0.00724,-0.122066 -2.2993119,4.600377 -0.098153,4.731846 0.070577,0.0042 3.0394857,2.543076 3.227222,2.103596 0.1659358,-0.388447 -1.4398873,-3.323241 -1.2375,-3.846548 0.5132548,-1.327108 0.042492,-3.167574 0.2025102,-3.102464 0.7116764,0.289576 8.7551964,-2.456039 9.5380124,-1.684868 5.130008,5.959468 4.822047,7.66119 5.831964,10.432995 l 1.6769,-1.852414 4.079116,-2.921379 -5.734093,-4.370947 c -1.319615,-1.274313 -3.881561,-3.048852 -5.21361,-4.419595 -0.827432,-0.851469 -2.935881,-0.981748 -3.662436,-1.12367 z"
       id="path1053"
       sodipodi:nodetypes="csssscccccscc"
       transform="matrix(1.0865661,0,0,1.2118534,-0.55607781,-11.243268)" />
    <path
       style="fill:#66333b;fill-opacity:0.459463;fill-rule:evenodd;stroke:none;stroke-width:0.264583px;stroke-linecap:butt;stroke-linejoin:miter;stroke-opacity:1;filter:url(#filter1272)"
       d="m 35.802294,78.681507 -3.083179,2.291763 -1.902798,1.278538 -2.293205,0.855766 -1.818209,-0.07287 -2.344126,0.391126 2.253815,1.253668 3.190648,-0.353595 4.701697,-4.138846 z"
       id="path1055"
       sodipodi:nodetypes="cccccccccc" />
    <path
       style="fill:#66333b;fill-opacity:0.459463;fill-rule:evenodd;stroke:none;stroke-width:0.264583px;stroke-linecap:butt;stroke-linejoin:miter;stroke-opacity:1;filter:url(#filter1160)"
       d="M 0.09338669,65.136667 4.9020633,69.24531 c 2.0960763,1.790936 6.5279137,3.648542 8.4692137,3.994406 1.945839,0.346674 2.257836,0.743815 4.233407,2.780561 l 4.768258,5.188867 5.135898,6.7829 c 2.865683,3.273992 7.084581,-0.06564 9.034494,0.39915 L 31.896085,94.415797 26.693536,102.089 34.27477,114.58836 2.1213965,114.31891 -9.8665074,96.396438 -11.398435,70.563887 -9.6420841,51.604414 Z"
       id="path1057"
       sodipodi:nodetypes="csscccccccccccc" />
    <path
       style="fill:#66333b;fill-opacity:0.459463;fill-rule:evenodd;stroke:none;stroke-width:0.264583px;stroke-linecap:butt;stroke-linejoin:miter;stroke-opacity:1;filter:url(#filter1236)"
       d="m 6.7956784,62.453173 1.0618584,2.419101 2.8921272,1.521502 -4.9699922,0.03693 z"
       id="path1059" />
    <path
       style="fill:#66333b;fill-opacity:0.459463;fill-rule:evenodd;stroke:none;stroke-width:0.264583px;stroke-linecap:butt;stroke-linejoin:miter;stroke-opacity:1;filter:url(#filter1228)"
       d="m 18.901573,53.083266 0.716437,1.662159 1.951321,1.04542 -3.353259,0.02537 z"
       id="path1059-5" />
    <path
       id="path900"
       style="fill:#ffe4f9;fill-opacity:1;fill-rule:evenodd;stroke:none;stroke-width:4.27015;stroke-linecap:round;stroke-linejoin:miter;stroke-miterlimit:4;stroke-dasharray:none;stroke-opacity:1;filter:url(#filter1480)"
       d="m 16.026472,53.395494 8.403817,5.307448 c 1.804904,1.166221 3.890302,1.994285 5.087408,2.735772 1.381547,0.639517 0.372568,2.336935 -0.916113,3.041919 -2.681507,2.023833 -2.168636,2.051079 -5.17565,3.71787 -0.658863,0.35473 -1.292075,0.904243 -1.930141,1.431812 -0.181886,0.150387 0.947717,-1.613589 2.831717,-3.403269 1.180695,-1.121584 3.427136,-2.919327 3.510995,-3.231554 0.168801,-0.62849 -6.647133,-3.907647 -6.886889,-3.783756"
       sodipodi:nodetypes="cccccsssc"
       transform="matrix(1.0865661,0,0,1.2118534,-0.55607781,-11.243268)" />
    <path
       id="path900-9"
       style="mix-blend-mode:normal;fill:#5f2414;fill-opacity:1;fill-rule:evenodd;stroke:none;stroke-width:4.9;stroke-linecap:round;stroke-linejoin:miter;stroke-miterlimit:4;stroke-dasharray:none;stroke-opacity:1"
       d="m 17.207248,54.130298 9.107239,5.725984 c 1.961147,1.413289 4.430197,1.762903 5.730932,2.661477 1.501142,0.775 1.420313,2.717924 0.02008,3.572261 -2.913635,2.452589 -3.574988,3.253584 -6.842307,5.27349 -0.715898,0.429881 -1.403925,1.09581 -2.097226,1.735147 -0.197631,0.182247 0.33771,-1.158317 2.384801,-3.327146 1.282903,-1.359196 5.447009,-4.892494 5.538127,-5.270867 0.183414,-0.761638 -6.776158,-4.265814 -7.036669,-4.115676"
       sodipodi:nodetypes="cccccsssc" />
    <path
       style="fill:url(#linearGradient946);fill-opacity:1;fill-rule:evenodd;stroke:none;stroke-width:0.264583px;stroke-linecap:butt;stroke-linejoin:miter;stroke-opacity:1"
       d="M 77.322878,41.514093 32.630926,74.411287 25.900658,77.461031 28.17781,71.567628 35.611862,-4.9506081 Z"
       id="path871"
       sodipodi:nodetypes="cccccc" />
    <path
       style="fill:url(#linearGradient1754);fill-opacity:1;fill-rule:evenodd;stroke:none;stroke-width:0.264583px;stroke-linecap:butt;stroke-linejoin:miter;stroke-opacity:1;filter:url(#filter1696)"
       d="m 2.4620638,30.851098 c 2.8897111,1.467366 3.2412733,7.726492 7.9627522,12.56715 l 6.638412,6.805976 -7.4960752,-6.368532 -5.0543695,-3.003388 z"
       id="path1597"
       sodipodi:nodetypes="cscccc" />
    <path
       style="fill:url(#linearGradient1746);fill-opacity:1;fill-rule:evenodd;stroke:none;stroke-width:0.264583px;stroke-linecap:butt;stroke-linejoin:miter;stroke-opacity:1;filter:url(#filter1704)"
       d="m 4.4950354,26.620202 c 2.889711,1.467366 12.2719596,7.322161 14.5938556,9.518084 l 5.304935,8.959271 -7.496075,-6.368532 -5.05437,-3.003388 z"
       id="path1597-1"
       sodipodi:nodetypes="cccccc" />
    <path
       style="fill:url(#linearGradient1762);fill-opacity:1;fill-rule:evenodd;stroke:none;stroke-width:0.264583px;stroke-linecap:butt;stroke-linejoin:miter;stroke-opacity:1;filter:url(#filter1724)"
       d="m -19.421412,40.884669 c 1.78982,0.469664 5.448216,0.267398 9.1812,1.936134 6.2538537,2.795627 13.9418579,6.310201 15.3958514,7.685309 l 7.5916036,5.296843 -9.6011426,-4.172838 -5.8352394,-3.75259 c -5.6952986,-3.517554 -11.181107,-4.926239 -16.732273,-6.992858 z"
       id="path1597-1-2"
       sodipodi:nodetypes="csccccc" />
    <path
       style="fill:url(#linearGradient1770);fill-opacity:1;fill-rule:evenodd;stroke:none;stroke-width:0.264583px;stroke-linecap:butt;stroke-linejoin:miter;stroke-opacity:1;filter:url(#filter1728)"
       d="m -20.218921,49.207627 c 2.80201,1.00973 8.800944,1.432953 11.7562061,6.93387 l 7.56445892,5.722021 -9.60114302,-4.172838 -1.340205,-1.443475 z"
       id="path1597-1-2-7"
       sodipodi:nodetypes="cccccc" />
    <path
       style="fill:#645845;fill-rule:evenodd;stroke:none;stroke-width:0.264583px;stroke-linecap:butt;stroke-linejoin:miter;stroke-opacity:1;fill-opacity:1;filter:url(#filter1147)"
       d="m 4.9356121,42.002815 6.3048459,4.928042 3.320772,2.899511 -1.600746,-3.086651 -3.8780183,-3.5669 -4.6388487,-2.276489 z"
       id="path1143" />
    <path
       style="fill:#645845;fill-opacity:1;fill-rule:evenodd;stroke:none;stroke-width:0.281973px;stroke-linecap:butt;stroke-linejoin:miter;stroke-opacity:1;filter:url(#filter1147-3)"
       d="m 14.45239,39.464799 6.304846,4.928042 3.320773,2.899511 -1.600747,-3.086651 -3.878018,-3.5669 -4.638849,-2.276489 z"
       id="path1143-7"
       transform="matrix(0.93533285,0,0,0.94133476,1.5610158,2.7710426)" />
    <path
       style="fill:#645845;fill-opacity:1;fill-rule:evenodd;stroke:none;stroke-width:0.264583px;stroke-linecap:butt;stroke-linejoin:miter;stroke-opacity:1;filter:url(#filter1147-3-5)"
       d="m -4.5443666,47.564579 6.304847,4.928042 3.320773,2.899511 -1.600747,-3.086651 -3.87801803,-3.5669 -4.63884997,-2.276489 z"
       id="path1143-7-5" />
    <path
       style="fill:#645845;fill-opacity:1;fill-rule:evenodd;stroke:none;stroke-width:0.264583px;stroke-linecap:butt;stroke-linejoin:miter;stroke-opacity:1;filter:url(#filter1147-3-5-6)"
       d="m -11.931258,58.03479 6.3048467,4.928042 3.3207736,2.899511 -1.6007474,-3.086651 -3.8780181,-3.5669 -4.6388498,-2.276489 z"
       id="path1143-7-5-9" />
    <text
       xml:space="preserve"
       style="font-style:normal;font-weight:normal;font-size:51.3544px;line-height:32.0965px;font-family:sans-serif;letter-spacing:0px;word-spacing:0px;fill:url(#linearGradient936);fill-opacity:1;stroke:#92002e;stroke-width:2.765;stroke-linecap:butt;stroke-linejoin:miter;stroke-miterlimit:4;stroke-dasharray:none;stroke-opacity:1"
       x="22.662214"
       y="38.562675"
       id="text869"
       transform="scale(0.80535873,1.2416827)"><tspan
         sodipodi:role="line"
         id="tspan867"
         x="22.662214"
         y="38.562675"
         style="font-style:normal;font-variant:normal;font-weight:normal;font-stretch:normal;font-size:51.3544px;font-family:Audiowide;-inkscape-font-specification:Audiowide;fill:url(#linearGradient936);fill-opacity:1;stroke:#92002e;stroke-width:2.765;stroke-miterlimit:4;stroke-dasharray:none;stroke-opacity:1">3D</tspan></text>
    <path
       style="fill:#66333b;fill-opacity:0.459463;fill-rule:evenodd;stroke:none;stroke-width:0.360165px;stroke-linecap:butt;stroke-linejoin:miter;stroke-opacity:1;filter:url(#filter1176-1)"
       d="m 7.3446999,64.3704 c -3.1864191,2.159454 -1.0216443,-1.177914 0.0391,0.798845 0.4952551,0.922938 -2.1674563,-1.603685 -0.9196216,-6.984739 1.60779,-1.082715 6.3623998,-1.170334 7.7597778,-0.914563 l 1.220739,-0.652764 0.946521,-0.515187 1.026893,-1.079124 c -1.319615,-1.274313 -0.348054,1.140016 -1.680103,-0.230727 -0.827432,-0.851469 -2.935881,-0.981748 -3.662436,-1.12367 z"
       id="path1053-7"
       sodipodi:nodetypes="cscccccscc"
       transform="matrix(0.93291589,-0.23452775,0.13677801,0.54408223,2.220117,20.820835)" />
  </g>
</svg>
